<svg version="1.1" xmlns="http://www.w3.org/2000/svg" xmlns:xlink="http://www.w3.org/1999/xlink" width="376" height="326"><defs><clipPath id="voSPaRxlUeoi"><path fill="none" stroke="none" d=" M 0 0 L 376 0 L 376 326 L 0 326 L 0 0 Z"/></clipPath></defs><g transform="scale(1,1)" clip-path="url(#voSPaRxlUeoi)"><g transform="translate(-470,-176)"><rect fill="rgb(255,255,255)" stroke="none" x="0" y="0" width="1524" height="847" fill-opacity="1"/><path fill="rgb(21,101,192)" stroke="none" paint-order="stroke fill markers" fill-rule="evenodd" d=" M 527 447.49999999999994 L 776.9999999999999 447.49999999999994 L 652 230.99364905388938 Z" fill-opacity="0.09803921568627451"/><path fill="none" stroke="rgb(21,101,192)" paint-order="fill stroke markers" d=" M 652 441.49999999999994 L 652 453.49999999999994" stroke-opacity="0.8" stroke-linecap="round" stroke-linejoin="round" stroke-miterlimit="10" stroke-width="2.5"/><path fill="none" stroke="rgb(21,101,192)" paint-order="fill stroke markers" d=" M 527 447.49999999999994 L 776.9999999999999 447.49999999999994" stroke-opacity="0.8" stroke-linecap="round" stroke-linejoin="round" stroke-miterlimit="10" stroke-width="2.5"/><path fill="none" stroke="rgb(21,101,192)" paint-order="fill stroke markers" d=" M 709.3038475772934 342.2468245269447 L 719.6961524227066 336.2468245269447" stroke-opacity="0.8" stroke-linecap="round" stroke-linejoin="round" stroke-miterlimit="10" stroke-width="2.5"/><path fill="none" stroke="rgb(21,101,192)" paint-order="fill stroke markers" d=" M 776.9999999999999 447.49999999999994 L 652 230.99364905388938" stroke-opacity="0.8" stroke-linecap="round" stroke-linejoin="round" stroke-miterlimit="10" stroke-width="2.5"/><path fill="none" stroke="rgb(21,101,192)" paint-order="fill stroke markers" d=" M 594.6961524227066 342.2468245269447 L 584.3038475772934 336.2468245269447" stroke-opacity="0.8" stroke-linecap="round" stroke-linejoin="round" stroke-miterlimit="10" stroke-width="2.5"/><path fill="none" stroke="rgb(21,101,192)" paint-order="fill stroke markers" d=" M 652 230.99364905388938 L 527 447.49999999999994" stroke-opacity="0.8" stroke-linecap="round" stroke-linejoin="round" stroke-miterlimit="10" stroke-width="2.5"/><path fill="rgb(21,101,192)" stroke="none" paint-order="stroke fill markers" d=" M 532 447.49999999999994 C 532 450.2614237491539 529.761423749154 452.49999999999994 527 452.49999999999994 C 524.238576250846 452.49999999999994 522 450.2614237491539 522 447.49999999999994 C 522 444.738576250846 524.238576250846 442.49999999999994 527 442.49999999999994 C 529.761423749154 442.49999999999994 532 444.738576250846 532 447.49999999999994 Z" fill-opacity="1"/><path fill="none" stroke="rgb(0,0,0)" paint-order="fill stroke markers" d=" M 532 447.49999999999994 C 532 450.2614237491539 529.761423749154 452.49999999999994 527 452.49999999999994 C 524.238576250846 452.49999999999994 522 450.2614237491539 522 447.49999999999994 C 522 444.738576250846 524.238576250846 442.49999999999994 527 442.49999999999994 C 529.761423749154 442.49999999999994 532 444.738576250846 532 447.49999999999994 Z" stroke-opacity="1" stroke-linecap="round" stroke-linejoin="round" stroke-miterlimit="10"/><text fill="rgb(21,101,192)" stroke="none" font-family="geogebra-sans-serif, sans-serif" font-size="16px" font-style="normal" font-weight="normal" text-decoration="normal" x="514" y="434" text-anchor="start" dominant-baseline="alphabetic" fill-opacity="1">A</text><text fill="none" stroke="rgb(255,255,255)" font-family="geogebra-sans-serif, sans-serif" font-size="16px" font-style="normal" font-weight="normal" text-decoration="normal" x="514" y="434" text-anchor="start" dominant-baseline="alphabetic" stroke-opacity="1" stroke-linejoin="bevel" stroke-miterlimit="10" stroke-width="3">A</text><text fill="rgb(21,101,192)" stroke="none" font-family="geogebra-sans-serif, sans-serif" font-size="16px" font-style="normal" font-weight="normal" text-decoration="normal" x="514" y="434" text-anchor="start" dominant-baseline="alphabetic" fill-opacity="1">A</text><path fill="rgb(21,101,192)" stroke="none" paint-order="stroke fill markers" d=" M 781.9999999999999 447.49999999999994 C 781.9999999999999 450.2614237491539 779.7614237491539 452.49999999999994 776.9999999999999 452.49999999999994 C 774.2385762508459 452.49999999999994 771.9999999999999 450.2614237491539 771.9999999999999 447.49999999999994 C 771.9999999999999 444.738576250846 774.2385762508459 442.49999999999994 776.9999999999999 442.49999999999994 C 779.7614237491539 442.49999999999994 781.9999999999999 444.738576250846 781.9999999999999 447.49999999999994 Z" fill-opacity="1"/><path fill="none" stroke="rgb(0,0,0)" paint-order="fill stroke markers" d=" M 781.9999999999999 447.49999999999994 C 781.9999999999999 450.2614237491539 779.7614237491539 452.49999999999994 776.9999999999999 452.49999999999994 C 774.2385762508459 452.49999999999994 771.9999999999999 450.2614237491539 771.9999999999999 447.49999999999994 C 771.9999999999999 444.738576250846 774.2385762508459 442.49999999999994 776.9999999999999 442.49999999999994 C 779.7614237491539 442.49999999999994 781.9999999999999 444.738576250846 781.9999999999999 447.49999999999994 Z" stroke-opacity="1" stroke-linecap="round" stroke-linejoin="round" stroke-miterlimit="10"/><text fill="rgb(21,101,192)" stroke="none" font-family="geogebra-sans-serif, sans-serif" font-size="16px" font-style="normal" font-weight="normal" text-decoration="normal" x="781" y="437" text-anchor="start" dominant-baseline="alphabetic" fill-opacity="1">B</text><text fill="none" stroke="rgb(255,255,255)" font-family="geogebra-sans-serif, sans-serif" font-size="16px" font-style="normal" font-weight="normal" text-decoration="normal" x="781" y="437" text-anchor="start" dominant-baseline="alphabetic" stroke-opacity="1" stroke-linejoin="bevel" stroke-miterlimit="10" stroke-width="3">B</text><text fill="rgb(21,101,192)" stroke="none" font-family="geogebra-sans-serif, sans-serif" font-size="16px" font-style="normal" font-weight="normal" text-decoration="normal" x="781" y="437" text-anchor="start" dominant-baseline="alphabetic" fill-opacity="1">B</text><path fill="rgb(21,101,192)" stroke="none" paint-order="stroke fill markers" d=" M 657 230.99364905388938 C 657 233.75507280304336 654.761423749154 235.99364905388938 652 235.99364905388938 C 649.238576250846 235.99364905388938 647 233.75507280304336 647 230.99364905388938 C 647 228.2322253047354 649.238576250846 225.99364905388938 652 225.99364905388938 C 654.761423749154 225.99364905388938 657 228.2322253047354 657 230.99364905388938 Z" fill-opacity="1"/><path fill="none" stroke="rgb(0,0,0)" paint-order="fill stroke markers" d=" M 657 230.99364905388938 C 657 233.75507280304336 654.761423749154 235.99364905388938 652 235.99364905388938 C 649.238576250846 235.99364905388938 647 233.75507280304336 647 230.99364905388938 C 647 228.2322253047354 649.238576250846 225.99364905388938 652 225.99364905388938 C 654.761423749154 225.99364905388938 657 228.2322253047354 657 230.99364905388938 Z" stroke-opacity="1" stroke-linecap="round" stroke-linejoin="round" stroke-miterlimit="10"/><text fill="rgb(21,101,192)" stroke="none" font-family="geogebra-sans-serif, sans-serif" font-size="16px" font-style="normal" font-weight="normal" text-decoration="normal" x="656" y="221" text-anchor="start" dominant-baseline="alphabetic" fill-opacity="1">C</text><text fill="none" stroke="rgb(255,255,255)" font-family="geogebra-sans-serif, sans-serif" font-size="16px" font-style="normal" font-weight="normal" text-decoration="normal" x="656" y="221" text-anchor="start" dominant-baseline="alphabetic" stroke-opacity="1" stroke-linejoin="bevel" stroke-miterlimit="10" stroke-width="3">C</text><text fill="rgb(21,101,192)" stroke="none" font-family="geogebra-sans-serif, sans-serif" font-size="16px" font-style="normal" font-weight="normal" text-decoration="normal" x="656" y="221" text-anchor="start" dominant-baseline="alphabetic" fill-opacity="1">C</text></g></g></svg>